<svg width="50" height="50" viewBox="0 0 50 50" fill="none" xmlns="http://www.w3.org/2000/svg">
<path d="M6.86668 42.9209L20.125 29.6625M36.8209 23.7667L32.8521 35.6729C32.7888 35.8638 32.6803 36.0366 32.536 36.1765C32.3916 36.3165 32.2156 36.4196 32.0229 36.4771L7.69377 43.7084C7.47458 43.7735 7.24174 43.7772 7.02058 43.7191C6.79942 43.6611 6.59842 43.5435 6.43945 43.3792C6.28048 43.2148 6.16963 43.01 6.11896 42.7871C6.0683 42.5641 6.07976 42.3315 6.1521 42.1146L14.0521 18.4188C14.1087 18.2486 14.2013 18.0927 14.3235 17.9615C14.4457 17.8303 14.5947 17.7269 14.7604 17.6584L25.9834 13.0375C26.2115 12.9433 26.4625 12.9187 26.7046 12.9669C26.9467 13.0151 27.1691 13.1339 27.3438 13.3084L36.5188 22.4854C36.6833 22.6498 36.7988 22.8567 36.8521 23.0831C36.9055 23.3094 36.8947 23.5462 36.8209 23.7667Z" stroke="black" stroke-width="2.5" stroke-linecap="round" stroke-linejoin="round"/>
<path d="M37.0667 23.0333L42.9584 17.1396C43.7395 16.3582 44.1783 15.2986 44.1783 14.1937C44.1783 13.0889 43.7395 12.0293 42.9584 11.2479L38.5417 6.82706C38.1548 6.43997 37.6954 6.13291 37.1897 5.92341C36.6841 5.71391 36.1421 5.60608 35.5948 5.60608C35.0475 5.60608 34.5055 5.71391 33.9999 5.92341C33.4943 6.13291 33.0349 6.43997 32.6479 6.82706L26.7563 12.7208M24.5438 25.2417C24.2535 24.9515 23.9089 24.7214 23.5297 24.5644C23.1505 24.4074 22.7441 24.3267 22.3337 24.3268C21.9232 24.3269 21.5169 24.4078 21.1377 24.565C20.7586 24.7221 20.4141 24.9524 20.124 25.2427C19.8338 25.533 19.6037 25.8775 19.4468 26.2568C19.2898 26.636 19.209 27.0424 19.2091 27.4528C19.2092 27.8632 19.2902 28.2696 19.4473 28.6487C19.6045 29.0279 19.8347 29.3723 20.125 29.6625C20.7113 30.2484 21.5063 30.5775 22.3351 30.5773C23.164 30.5771 23.9589 30.2477 24.5448 29.6614C25.1308 29.0752 25.4599 28.2802 25.4597 27.4513C25.4595 26.6225 25.13 25.8276 24.5438 25.2417Z" stroke="black" stroke-width="2.5" stroke-linecap="round" stroke-linejoin="round"/>
</svg>
